<svg aria-hidden="true" style="position: absolute; width: 0; height: 0; overflow: hidden;" version="1.1" xmlns="http://www.w3.org/2000/svg" xmlns:xlink="http://www.w3.org/1999/xlink">
<defs>
<symbol id="icon-telegram" viewBox="0 0 33 32">
<path fill="#fff" style="fill: var(--color1, #fff)" d="M0.383 31.619h31.242v-31.238h-31.242v31.238z"></path>
<path fill="#18b5dc" style="fill: var(--color2, #18b5dc)" d="M23.276 11.015l-2.208 10.345c-0.167 0.73-0.601 0.912-1.218 0.568l-3.364-2.463-1.623 1.551c-0.18 0.178-0.33 0.328-0.676 0.328l0.242-3.404 6.234-5.598c0.271-0.24-0.059-0.373-0.421-0.133l-7.707 4.822-3.318-1.032c-0.722-0.224-0.735-0.717 0.15-1.061l12.977-4.968c0.601-0.224 1.127 0.133 0.931 1.045z"></path>
<path fill="none" stroke="#18b5dc" style="stroke: var(--color2, #18b5dc)" stroke-linejoin="miter" stroke-linecap="butt" stroke-miterlimit="4" stroke-width="0.7619" d="M0.383 31.619h31.242v-31.238h-31.242v31.238z"></path>
</symbol>
<symbol id="icon-linkedin" viewBox="0 0 34 32">
<path fill="#fff" style="fill: var(--color1, #fff)" d="M1.141 31.619h31.242v-31.238h-31.242v31.238z"></path>
<path fill="#18b5dc" style="fill: var(--color2, #18b5dc)" d="M12.554 23.619h-3.159v-10.174h3.159v10.174zM10.972 12.058c-1.010 0-1.83-0.837-1.83-1.847 0-0.485 0.193-0.951 0.536-1.294s0.809-0.536 1.294-0.536 0.951 0.193 1.294 0.536c0.343 0.343 0.536 0.808 0.536 1.294 0 1.010-0.82 1.847-1.83 1.847zM24.378 23.619h-3.152v-4.952c0-1.18-0.024-2.694-1.643-2.694-1.642 0-1.894 1.282-1.894 2.609v5.038h-3.156v-10.174h3.030v1.388h0.044c0.422-0.799 1.452-1.643 2.989-1.643 3.197 0 3.785 2.105 3.785 4.84v5.589h-0.003z"></path>
<path fill="none" stroke="#18b5dc" style="stroke: var(--color2, #18b5dc)" stroke-linejoin="miter" stroke-linecap="butt" stroke-miterlimit="4" stroke-width="0.7619" d="M1.141 31.619h31.242v-31.238h-31.242v31.238z"></path>
</symbol>
<symbol id="icon-instagram" viewBox="0 0 33 32">
<path fill="#fff" style="fill: var(--color1, #fff)" d="M1.138 31.619h31.242v-31.238h-31.242v31.238z"></path>
<path fill="#18b5dc" style="fill: var(--color2, #18b5dc)" d="M16.76 19.907c-2.163 0-3.907-1.744-3.907-3.907s1.744-3.907 3.907-3.907c2.163 0 3.907 1.744 3.907 3.907s-1.744 3.907-3.907 3.907zM16.76 13.46c-1.398 0-2.54 1.139-2.54 2.54s1.139 2.54 2.54 2.54c1.401 0 2.54-1.139 2.54-2.54s-1.142-2.54-2.54-2.54zM21.738 20.067c0-0.507-0.408-0.911-0.911-0.911-0.507 0-0.911 0.408-0.911 0.911s0.408 0.911 0.911 0.911c0.503 0 0.911-0.408 0.911-0.911zM24.326 19.142c-0.058 1.221-0.337 2.302-1.231 3.193-0.891 0.891-1.972 1.17-3.193 1.231-1.258 0.071-5.029 0.071-6.287 0-1.217-0.058-2.299-0.337-3.193-1.227s-1.17-1.972-1.231-3.193c-0.071-1.258-0.071-5.029 0-6.287 0.058-1.221 0.337-2.302 1.231-3.193s1.972-1.17 3.193-1.231c1.258-0.071 5.029-0.071 6.287 0 1.221 0.058 2.302 0.337 3.193 1.231 0.891 0.891 1.17 1.972 1.231 3.193 0.071 1.258 0.071 5.026 0 6.284zM22.7 11.508c-0.265-0.666-0.779-1.18-1.449-1.449-1.003-0.398-3.383-0.306-4.492-0.306s-3.492-0.088-4.492 0.306c-0.666 0.265-1.18 0.779-1.448 1.449-0.398 1.003-0.306 3.383-0.306 4.492s-0.088 3.492 0.306 4.492c0.265 0.666 0.779 1.18 1.448 1.449 1.003 0.398 3.383 0.306 4.492 0.306s3.492 0.088 4.492-0.306c0.666-0.265 1.18-0.779 1.449-1.449 0.398-1.003 0.306-3.383 0.306-4.492s0.092-3.492-0.306-4.492z"></path>
<path fill="none" stroke="#18b5dc" style="stroke: var(--color2, #18b5dc)" stroke-linejoin="miter" stroke-linecap="butt" stroke-miterlimit="4" stroke-width="0.7619" d="M1.138 31.619h31.242v-31.238h-31.242v31.238z"></path>
</symbol>
<symbol id="icon-facebook" viewBox="0 0 33 32">
<path fill="#fff" style="fill: var(--color1, #fff)" d="M1.138 0.381h31.238v31.238h-31.238v-31.238z"></path>
<path fill="#18b5dc" style="fill: var(--color2, #18b5dc)" d="M20.398 16.952l0.435-2.758h-2.717v-1.79c0-0.754 0.38-1.49 1.597-1.49h1.235v-2.348c0 0-1.121-0.186-2.193-0.186-2.238 0-3.7 1.321-3.7 3.712v2.102h-2.488v2.758h2.488v6.667h3.062v-6.667h2.283z"></path>
<path fill="none" stroke="#18b5dc" style="stroke: var(--color2, #18b5dc)" stroke-linejoin="miter" stroke-linecap="butt" stroke-miterlimit="4" stroke-width="0.7619" d="M1.138 0.381h31.238v31.238h-31.238v-31.238z"></path>
</symbol>
<symbol id="icon-twitter" viewBox="0 0 33 32">
<path fill="#fff" style="fill: var(--color1, #fff)" d="M1.138 0.381h31.238v31.238h-31.238v-31.238z"></path>
<path fill="#18b5dc" style="fill: var(--color2, #18b5dc)" d="M22.81 12.896c0.010 0.135 0.010 0.271 0.010 0.406 0 4.129-3.142 8.886-8.886 8.886-1.769 0-3.413-0.512-4.796-1.402 0.251 0.029 0.493 0.039 0.754 0.039 1.46 0 2.804-0.493 3.877-1.334-1.373-0.029-2.524-0.928-2.92-2.166 0.193 0.029 0.387 0.048 0.59 0.048 0.28 0 0.561-0.039 0.822-0.106-1.431-0.29-2.504-1.547-2.504-3.065v-0.039c0.416 0.232 0.899 0.377 1.412 0.396-0.841-0.561-1.392-1.518-1.392-2.601 0-0.58 0.155-1.112 0.425-1.576 1.537 1.895 3.848 3.133 6.439 3.268-0.048-0.232-0.077-0.474-0.077-0.715 0-1.721 1.392-3.123 3.123-3.123 0.899 0 1.711 0.377 2.282 0.986 0.706-0.135 1.383-0.396 1.982-0.754-0.232 0.725-0.725 1.334-1.373 1.721 0.628-0.068 1.238-0.242 1.798-0.483-0.425 0.619-0.957 1.17-1.566 1.615z"></path>
<path fill="none" stroke="#18b5dc" style="stroke: var(--color2, #18b5dc)" stroke-linejoin="miter" stroke-linecap="butt" stroke-miterlimit="4" stroke-width="0.7619" d="M1.138 0.381h31.238v31.238h-31.238v-31.238z"></path>
</symbol>
</defs>
</svg>
